<svg width="33" height="30" viewBox="0 0 33 30" fill="none" xmlns="http://www.w3.org/2000/svg">
<path d="M31.7286 22.402C27.4507 21.698 25.5227 17.316 25.4447 17.13C25.4387 17.118 25.4347 17.106 25.4267 17.094C25.2087 16.65 25.1567 16.284 25.2767 16.006C25.5107 15.458 26.4067 15.174 26.9987 14.986C27.1707 14.932 27.3327 14.88 27.4667 14.828C28.0506 14.598 28.4667 14.348 28.7427 14.066C29.0707 13.728 29.1347 13.404 29.1307 13.194C29.1207 12.682 28.7287 12.226 28.1027 12.004C27.8927 11.918 27.6507 11.872 27.4067 11.872C27.2407 11.872 26.9927 11.894 26.7587 12.004C26.2587 12.238 25.8107 12.366 25.4247 12.384C25.2207 12.374 25.0767 12.33 24.9827 12.288C24.9947 12.088 25.0067 11.882 25.0207 11.67L25.0267 11.578C25.1647 9.41199 25.3347 6.71799 24.6187 5.118C24.1287 4.022 23.4707 3.08 22.6607 2.316C21.9827 1.676 21.1947 1.156 20.3187 0.771999C18.7967 0.0999999 17.3767 0 16.6647 0H16.5847C16.3867 0.002 16.0647 0.00599998 16.0347 0.00599998C15.3247 0.00599998 13.9027 0.106 12.3767 0.777999C11.5027 1.162 10.7187 1.68 10.0427 2.32C9.23667 3.084 8.58067 4.024 8.09267 5.116C7.37667 6.71399 7.54667 9.40799 7.68267 11.572V11.576C7.69667 11.808 7.71267 12.05 7.72667 12.286C7.62267 12.332 7.45267 12.384 7.20267 12.384C6.79867 12.384 6.31867 12.256 5.77667 12.002C5.61667 11.928 5.43467 11.89 5.23467 11.89C4.91267 11.89 4.57067 11.984 4.27667 12.158C3.90467 12.376 3.66467 12.682 3.59867 13.024C3.55667 13.248 3.55867 13.694 4.05467 14.146C4.32867 14.394 4.72867 14.624 5.24667 14.828C5.38267 14.882 5.54467 14.932 5.71467 14.986C6.30667 15.174 7.20467 15.458 7.43867 16.006C7.55667 16.284 7.50467 16.65 7.28667 17.094C7.28051 17.1056 7.27516 17.1176 7.27067 17.13C7.21467 17.258 6.70467 18.408 5.65867 19.622C5.06467 20.312 4.41067 20.89 3.71467 21.338C2.86467 21.886 1.94667 22.242 0.984675 22.4C0.606675 22.462 0.336675 22.798 0.358675 23.18C0.364675 23.29 0.390675 23.4 0.436675 23.506V23.508C0.590675 23.866 0.944675 24.168 1.52067 24.434C2.22467 24.76 3.27667 25.034 4.65067 25.248C4.72067 25.38 4.79267 25.71 4.84267 25.936C4.89467 26.176 4.94867 26.424 5.02667 26.686C5.11067 26.97 5.32667 27.31 5.88467 27.31C6.09667 27.31 6.33867 27.262 6.62067 27.208C7.03267 27.128 7.59667 27.018 8.29867 27.018C8.68867 27.018 9.09267 27.052 9.49867 27.12C10.2827 27.25 10.9587 27.726 11.7407 28.278C12.8847 29.086 14.1807 30 16.1607 30C16.2147 30 16.2687 29.998 16.3227 29.994C16.3993 29.9982 16.476 30.0002 16.5527 30C18.5327 30 19.8287 29.086 20.9727 28.28L20.9747 28.278C21.7567 27.728 22.4327 27.252 23.2167 27.122C23.6227 27.054 24.0267 27.02 24.4167 27.02C25.0887 27.02 25.6207 27.106 26.0947 27.198C26.4047 27.258 26.6447 27.288 26.8307 27.288H26.8667C27.2747 27.288 27.5746 27.064 27.6887 26.674C27.7647 26.416 27.8187 26.176 27.8727 25.93C27.9186 25.718 27.9946 25.378 28.0627 25.246C29.4366 25.03 30.4886 24.758 31.1926 24.432C31.7666 24.166 32.1206 23.864 32.2746 23.508C32.3206 23.402 32.3486 23.292 32.3546 23.178C32.3766 22.8 32.1066 22.462 31.7286 22.402Z" fill="url(#paint0_linear_839_386)"/>
<defs>
<linearGradient id="paint0_linear_839_386" x1="0.357422" y1="15" x2="32.3559" y2="15" gradientUnits="userSpaceOnUse">
<stop stop-color="#008655"/>
<stop offset="0.244509" stop-color="#48C4A5"/>
<stop offset="0.561338" stop-color="#01895F"/>
<stop offset="0.603289" stop-color="#01895F"/>
<stop offset="0.94286" stop-color="#36B086"/>
</linearGradient>
</defs>
</svg>
