<svg width="26" height="27" viewBox="0 0 26 27" fill="none" xmlns="http://www.w3.org/2000/svg">
<path d="M22.017 11.8099C21.9632 6.0331 17.2366 1.3937 11.4598 1.44751C5.683 1.50131 1.0436 6.22794 1.09741 12.0047C1.15121 17.7815 5.87784 22.4209 11.6546 22.3671C17.4314 22.3133 22.0708 17.5867 22.017 11.8099Z" stroke="white" stroke-width="1.5" stroke-miterlimit="10"/>
<path d="M24.6653 25.975C24.9525 26.2735 25.4272 26.2827 25.7258 25.9956C26.0243 25.7084 26.0335 25.2336 25.7463 24.9351L25.2058 25.455L24.6653 25.975ZM25.2058 25.455L25.7463 24.9351L19.537 18.48L18.9965 19L18.456 19.5199L24.6653 25.975L25.2058 25.455Z" fill="white"/>
</svg>
