<svg width="61" height="8" viewBox="0 0 61 8" fill="none" xmlns="http://www.w3.org/2000/svg">
<path d="M1 6.10292C2.84471 5.06688 4.76221 3.97436 5.65774 3.57748C7.34537 2.82957 9.23318 1.69418 10.0636 1.49574C10.6235 1.36195 11.3403 1.34635 11.9782 1.46898C12.2724 1.52554 12.3632 1.83688 12.3968 2.08585C12.5176 2.98342 11.7311 4.84838 11.915 6.76735C11.9505 7.13827 13.0529 6.99478 13.6649 6.8231C15.7125 6.24871 15.9377 4.81865 16.7681 4.22185C17.5997 3.6242 19.2517 3.57897 20.5035 3.27945C20.7272 3.22594 20.9182 3.18061 21.1424 3.27797C22.3829 3.81687 23.0254 4.56596 23.919 4.86324C25.2754 5.31448 28.0519 5.06242 30.3966 4.76737C32.0203 4.56303 33.3676 3.72612 35.2411 3.30695C38.5424 2.56831 41.0951 2.09105 42.0816 1.79451C44.3229 1.12079 46.5794 1.24825 48.087 1.14866C48.3762 1.09961 48.6291 1.0015 50.5926 1.00002C52.556 0.99853 56.2225 1.09663 60 1.19771" stroke="#FCED5E" stroke-width="2" stroke-linecap="round"/>
</svg>
