<svg width="27" height="27" viewBox="0 0 27 27" fill="none" xmlns="http://www.w3.org/2000/svg">
<path d="M11.6224 26C12.773 26 13.7058 25.0673 13.7058 23.9166C13.7058 22.766 12.773 21.8333 11.6224 21.8333C10.4718 21.8333 9.53906 22.766 9.53906 23.9166C9.53906 25.0673 10.4718 26 11.6224 26Z" stroke="white" stroke-width="1.5" stroke-miterlimit="10" stroke-linecap="round" stroke-linejoin="round"/>
<path d="M20.7894 26C21.94 26 22.8728 25.0673 22.8728 23.9166C22.8728 22.766 21.94 21.8333 20.7894 21.8333C19.6388 21.8333 18.7061 22.766 18.7061 23.9166C18.7061 25.0673 19.6388 26 20.7894 26Z" stroke="white" stroke-width="1.5" stroke-miterlimit="10" stroke-linecap="round" stroke-linejoin="round"/>
<path d="M20.7894 21.8334H10.7894C9.63899 21.8334 8.70605 20.9004 8.70605 19.75C8.70605 18.5996 9.63899 17.6667 10.7894 17.6667" stroke="white" stroke-width="1.5" stroke-miterlimit="10" stroke-linecap="round" stroke-linejoin="round"/>
<path d="M6.20605 7.66665H26.2061L24.2585 15.4575C23.934 16.7558 22.7673 17.6666 21.429 17.6666H10.9831C9.6448 17.6666 8.47815 16.7558 8.15357 15.4575L6.20605 7.66665ZM6.20605 7.66665C6.20605 7.66665 5.7727 5.93288 5.3477 4.23371C4.8727 2.33335 3.16524 1 1.20605 1" stroke="white" stroke-width="1.5" stroke-miterlimit="10" stroke-linecap="round" stroke-linejoin="round"/>
</svg>
