<svg width="17" height="17" viewBox="0 0 17 17" fill="none" xmlns="http://www.w3.org/2000/svg">
<path d="M7.16635 16.5C7.90274 16.5 8.4997 15.903 8.4997 15.1667C8.4997 14.4303 7.90274 13.8333 7.16635 13.8333C6.42997 13.8333 5.83301 14.4303 5.83301 15.1667C5.83301 15.903 6.42997 16.5 7.16635 16.5Z" stroke="#0E0E0E" stroke-miterlimit="10" stroke-linecap="round" stroke-linejoin="round"/>
<path d="M13.0335 16.5C13.7699 16.5 14.3669 15.903 14.3669 15.1667C14.3669 14.4303 13.7699 13.8333 13.0335 13.8333C12.2972 13.8333 11.7002 14.4303 11.7002 15.1667C11.7002 15.903 12.2972 16.5 13.0335 16.5Z" stroke="#0E0E0E" stroke-miterlimit="10" stroke-linecap="round" stroke-linejoin="round"/>
<path d="M13.0331 13.8333H6.63315C5.89688 13.8333 5.2998 13.2363 5.2998 12.5C5.2998 11.7637 5.89688 11.1667 6.63315 11.1667" stroke="#0E0E0E" stroke-miterlimit="10" stroke-linecap="round" stroke-linejoin="round"/>
<path d="M3.7 4.76666H16.5L15.2536 9.75278C15.0459 10.5837 14.2992 11.1667 13.4427 11.1667H6.75733C5.9008 11.1667 5.15414 10.5837 4.94641 9.75278L3.7 4.76666ZM3.7 4.76666C3.7 4.76666 3.42266 3.65705 3.15066 2.56958C2.84666 1.35334 1.75388 0.5 0.5 0.5" stroke="#0E0E0E" stroke-miterlimit="10" stroke-linecap="round" stroke-linejoin="round"/>
</svg>
