<svg width="20" height="20" viewBox="0 0 20 20" fill="none" xmlns="http://www.w3.org/2000/svg">
<path d="M13.9953 3.12501C15.0986 3.12501 16.1353 3.55501 16.9153 4.33418C17.6888 5.10911 18.1232 6.15928 18.1232 7.25418C18.1232 8.34908 17.6888 9.39925 16.9153 10.1742L10.0003 17.09L3.08446 10.1742C2.31122 9.39929 1.87695 8.34929 1.87695 7.2546C1.87695 6.1599 2.31122 5.10991 3.08446 4.33501C3.46698 3.95026 3.92203 3.64521 4.42325 3.43751C4.92447 3.22981 5.46191 3.1236 6.00446 3.12501C7.10779 3.12501 8.14446 3.55501 8.92446 4.33418L9.55779 4.96751L10.0003 5.41001L10.442 4.96751L11.0753 4.33418C11.458 3.94969 11.9131 3.64487 12.4143 3.43732C12.9155 3.22978 13.4528 3.12363 13.9953 3.12501Z" stroke="black" stroke-width="1.43"/>
</svg>
