<svg width="30" height="30" viewBox="0 0 30 30" fill="none" xmlns="http://www.w3.org/2000/svg">
<path d="M17.6367 15C17.6367 16.4562 16.4562 17.6367 15 17.6367C13.5438 17.6367 12.3633 16.4562 12.3633 15C12.3633 13.5438 13.5438 12.3633 15 12.3633C16.4562 12.3633 17.6367 13.5438 17.6367 15Z" fill="url(#paint0_linear_839_376)"/>
<path d="M19.4531 7.03125H10.5469C8.60824 7.03125 7.03125 8.60824 7.03125 10.5469V19.4531C7.03125 21.3918 8.60824 22.9688 10.5469 22.9688H19.4531C21.3918 22.9688 22.9688 21.3918 22.9688 19.4531V10.5469C22.9688 8.60824 21.3918 7.03125 19.4531 7.03125ZM15 19.3945C12.5769 19.3945 10.6055 17.4231 10.6055 15C10.6055 12.5769 12.5769 10.6055 15 10.6055C17.4231 10.6055 19.3945 12.5769 19.3945 15C19.3945 17.4231 17.4231 19.3945 15 19.3945ZM20.0391 10.8398C19.5536 10.8398 19.1602 10.4464 19.1602 9.96094C19.1602 9.47549 19.5536 9.08203 20.0391 9.08203C20.5245 9.08203 20.918 9.47549 20.918 9.96094C20.918 10.4464 20.5245 10.8398 20.0391 10.8398Z" fill="url(#paint1_linear_839_376)"/>
<path d="M22.0898 0H7.91016C3.54855 0 0 3.54861 0 7.91016V22.0898C0 26.4514 3.54861 30 7.91016 30H22.0898C26.4514 30 30 26.4514 30 22.0898V7.91016C30 3.54855 26.4514 0 22.0898 0ZM24.7266 19.4531C24.7266 22.3608 22.3608 24.7266 19.4531 24.7266H10.5469C7.63916 24.7266 5.27344 22.3608 5.27344 19.4531V10.5469C5.27344 7.63916 7.63916 5.27344 10.5469 5.27344H19.4531C22.3608 5.27344 24.7266 7.63916 24.7266 10.5469V19.4531Z" fill="url(#paint2_linear_839_376)"/>
<defs>
<linearGradient id="paint0_linear_839_376" x1="12.3633" y1="15" x2="17.6367" y2="15" gradientUnits="userSpaceOnUse">
<stop stop-color="#008655"/>
<stop offset="0.244509" stop-color="#48C4A5"/>
<stop offset="0.561338" stop-color="#01895F"/>
<stop offset="0.603289" stop-color="#01895F"/>
<stop offset="0.94286" stop-color="#36B086"/>
</linearGradient>
<linearGradient id="paint1_linear_839_376" x1="7.03125" y1="15" x2="22.9688" y2="15" gradientUnits="userSpaceOnUse">
<stop stop-color="#008655"/>
<stop offset="0.244509" stop-color="#48C4A5"/>
<stop offset="0.561338" stop-color="#01895F"/>
<stop offset="0.603289" stop-color="#01895F"/>
<stop offset="0.94286" stop-color="#36B086"/>
</linearGradient>
<linearGradient id="paint2_linear_839_376" x1="0" y1="15" x2="30" y2="15" gradientUnits="userSpaceOnUse">
<stop stop-color="#008655"/>
<stop offset="0.244509" stop-color="#48C4A5"/>
<stop offset="0.561338" stop-color="#01895F"/>
<stop offset="0.603289" stop-color="#01895F"/>
<stop offset="0.94286" stop-color="#36B086"/>
</linearGradient>
</defs>
</svg>
