<svg width="27" height="30" viewBox="0 0 27 30" fill="none" xmlns="http://www.w3.org/2000/svg">
<path d="M26.3432 7.51159C24.6285 7.51159 23.0463 6.94353 21.7758 5.98521C20.3187 4.88664 19.2718 3.27517 18.9021 1.41781C18.8093 0.950797 18.7606 0.476115 18.7565 0H13.8581V13.3847L13.8523 20.7161C13.8523 22.6762 12.5759 24.3381 10.8066 24.9226C10.2766 25.0979 9.71838 25.1719 9.16105 25.1409C8.42397 25.1004 7.73326 24.878 7.13292 24.5189C5.85536 23.7548 4.98918 22.3687 4.96571 20.783C4.92874 18.3048 6.93222 16.2843 9.4087 16.2843C9.89754 16.2843 10.367 16.3641 10.8066 16.5091V11.5356C10.3429 11.4669 9.87113 11.4311 9.39402 11.4311C6.6834 11.4311 4.14823 12.5579 2.33606 14.5877C0.966372 16.1218 0.144791 18.0789 0.0180333 20.1311C-0.148043 22.827 0.83844 25.3898 2.75155 27.2806C3.03265 27.5581 3.32783 27.8158 3.63651 28.0534C5.27673 29.3157 7.28198 30 9.39402 30C9.87113 30 10.3429 29.9648 10.8066 29.8961C12.7795 29.6039 14.5999 28.7007 16.0365 27.2806C17.8017 25.5359 18.7771 23.2196 18.7876 20.7543L18.7624 9.80615C19.6065 10.4572 20.5312 10.9965 21.5135 11.4106C23.0504 12.059 24.6801 12.3877 26.3573 12.3871V7.51042C26.3585 7.51159 26.3444 7.51159 26.3432 7.51159Z" fill="url(#paint0_linear_839_382)"/>
<defs>
<linearGradient id="paint0_linear_839_382" x1="0" y1="15" x2="26.3574" y2="15" gradientUnits="userSpaceOnUse">
<stop stop-color="#008655"/>
<stop offset="0.244509" stop-color="#48C4A5"/>
<stop offset="0.561338" stop-color="#01895F"/>
<stop offset="0.603289" stop-color="#01895F"/>
<stop offset="0.94286" stop-color="#36B086"/>
</linearGradient>
</defs>
</svg>
